<svg width="210" height="18" viewBox="0 0 210 18" fill="none" xmlns="http://www.w3.org/2000/svg">
<path d="M4.008 17.04C2.6 17.04 1.576 16.72 0.936 16.08C0.312 15.44 -4.76837e-07 14.416 -4.76837e-07 13.008V11.304C-4.76837e-07 9.38398 0.688 8.31198 2.064 8.08798V7.91998C1.52 7.74398 1.12 7.43998 0.863999 7.00798C0.608 6.57598 0.48 6.01598 0.48 5.32798V3.47998C0.48 2.32798 0.776 1.46398 1.368 0.887982C1.976 0.295982 2.872 -1.81198e-05 4.056 -1.81198e-05H11.16C12.344 -1.81198e-05 13.232 0.295982 13.824 0.887982C14.432 1.46398 14.736 2.32798 14.736 3.47998V5.32798C14.736 6.01598 14.608 6.57598 14.352 7.00798C14.096 7.43998 13.696 7.74398 13.152 7.91998V8.08798C14.528 8.31198 15.216 9.38398 15.216 11.304V13.008C15.216 14.416 14.896 15.44 14.256 16.08C13.632 16.72 12.616 17.04 11.208 17.04H4.008ZM9.768 6.95998C10.296 6.95998 10.664 6.85598 10.872 6.64798C11.096 6.42398 11.208 6.04798 11.208 5.51998V4.12798C11.208 3.63198 11.096 3.27998 10.872 3.07198C10.664 2.86398 10.312 2.75998 9.816 2.75998H5.4C4.904 2.75998 4.544 2.86398 4.32 3.07198C4.112 3.27998 4.008 3.63198 4.008 4.12798V5.51998C4.008 6.04798 4.112 6.42398 4.32 6.64798C4.544 6.85598 4.92 6.95998 5.448 6.95998H9.768ZM10.128 14.16C10.656 14.16 11.024 14.056 11.232 13.848C11.456 13.624 11.568 13.248 11.568 12.72V11.04C11.568 10.512 11.456 10.144 11.232 9.93598C11.024 9.71198 10.656 9.59998 10.128 9.59998H5.088C4.56 9.59998 4.184 9.71198 3.96 9.93598C3.752 10.144 3.648 10.512 3.648 11.04V12.72C3.648 13.248 3.752 13.624 3.96 13.848C4.184 14.056 4.56 14.16 5.088 14.16H10.128ZM26.5502 17.04C25.1422 17.04 24.1182 16.72 23.4782 16.08C22.8542 15.44 22.5422 14.416 22.5422 13.008V11.304C22.5422 9.38398 23.2302 8.31198 24.6062 8.08798V7.91998C24.0622 7.74398 23.6622 7.43998 23.4062 7.00798C23.1502 6.57598 23.0222 6.01598 23.0222 5.32798V3.47998C23.0222 2.32798 23.3182 1.46398 23.9102 0.887982C24.5182 0.295982 25.4142 -1.81198e-05 26.5982 -1.81198e-05H33.7022C34.8862 -1.81198e-05 35.7742 0.295982 36.3662 0.887982C36.9742 1.46398 37.2782 2.32798 37.2782 3.47998V5.32798C37.2782 6.01598 37.1502 6.57598 36.8942 7.00798C36.6382 7.43998 36.2382 7.74398 35.6942 7.91998V8.08798C37.0702 8.31198 37.7582 9.38398 37.7582 11.304V13.008C37.7582 14.416 37.4382 15.44 36.7982 16.08C36.1742 16.72 35.1582 17.04 33.7502 17.04H26.5502ZM32.3102 6.95998C32.8382 6.95998 33.2062 6.85598 33.4142 6.64798C33.6382 6.42398 33.7502 6.04798 33.7502 5.51998V4.12798C33.7502 3.63198 33.6382 3.27998 33.4142 3.07198C33.2062 2.86398 32.8542 2.75998 32.3582 2.75998H27.9422C27.4462 2.75998 27.0862 2.86398 26.8622 3.07198C26.6542 3.27998 26.5502 3.63198 26.5502 4.12798V5.51998C26.5502 6.04798 26.6542 6.42398 26.8622 6.64798C27.0862 6.85598 27.4622 6.95998 27.9902 6.95998H32.3102ZM32.6702 14.16C33.1982 14.16 33.5662 14.056 33.7742 13.848C33.9982 13.624 34.1102 13.248 34.1102 12.72V11.04C34.1102 10.512 33.9982 10.144 33.7742 9.93598C33.5662 9.71198 33.1982 9.59998 32.6702 9.59998H27.6302C27.1022 9.59998 26.7262 9.71198 26.5022 9.93598C26.2942 10.144 26.1902 10.512 26.1902 11.04V12.72C26.1902 13.248 26.2942 13.624 26.5022 13.848C26.7262 14.056 27.1022 14.16 27.6302 14.16H32.6702ZM44.7879 17.04C43.3479 17.04 42.2759 16.688 41.5719 15.984C40.8679 15.28 40.5159 14.208 40.5159 12.768V4.24798C40.5159 2.80798 40.8679 1.74398 41.5719 1.05598C42.2759 0.351982 43.3479 -1.81198e-05 44.7879 -1.81198e-05H51.5079C52.9479 -1.81198e-05 54.0119 0.351982 54.6999 1.05598C55.4039 1.74398 55.7559 2.80798 55.7559 4.24798V12.768C55.7559 14.208 55.4039 15.28 54.6999 15.984C54.0119 16.688 52.9479 17.04 51.5079 17.04H44.7879ZM50.6679 14.04C51.2119 14.04 51.6039 13.92 51.8439 13.68C52.0999 13.424 52.2279 13.024 52.2279 12.48V4.55998C52.2279 4.01598 52.0999 3.62398 51.8439 3.38398C51.6039 3.12798 51.2119 2.99998 50.6679 2.99998H45.6279C45.0839 2.99998 44.6839 3.12798 44.4279 3.38398C44.1879 3.62398 44.0679 4.01598 44.0679 4.55998V12.48C44.0679 13.024 44.1879 13.424 44.4279 13.68C44.6839 13.92 45.0839 14.04 45.6279 14.04H50.6679ZM46.8759 10.128C46.5559 10.128 46.3959 9.96798 46.3959 9.64798V7.12798C46.3959 6.80798 46.5559 6.64798 46.8759 6.64798H49.3959C49.7159 6.64798 49.8759 6.80798 49.8759 7.12798V9.64798C49.8759 9.96798 49.7159 10.128 49.3959 10.128H46.8759ZM63.2661 17.04C61.8261 17.04 60.7541 16.688 60.0501 15.984C59.3461 15.28 58.9941 14.208 58.9941 12.768V4.24798C58.9941 2.80798 59.3461 1.74398 60.0501 1.05598C60.7541 0.351982 61.8261 -1.81198e-05 63.2661 -1.81198e-05H69.9861C71.4261 -1.81198e-05 72.4901 0.351982 73.1781 1.05598C73.8821 1.74398 74.2341 2.80798 74.2341 4.24798V12.768C74.2341 14.208 73.8821 15.28 73.1781 15.984C72.4901 16.688 71.4261 17.04 69.9861 17.04H63.2661ZM69.1461 14.04C69.6901 14.04 70.0821 13.92 70.3221 13.68C70.5781 13.424 70.7061 13.024 70.7061 12.48V4.55998C70.7061 4.01598 70.5781 3.62398 70.3221 3.38398C70.0821 3.12798 69.6901 2.99998 69.1461 2.99998H64.1061C63.5621 2.99998 63.1621 3.12798 62.9061 3.38398C62.6661 3.62398 62.5461 4.01598 62.5461 4.55998V12.48C62.5461 13.024 62.6661 13.424 62.9061 13.68C63.1621 13.92 63.5621 14.04 64.1061 14.04H69.1461ZM65.3541 10.128C65.0341 10.128 64.8741 9.96798 64.8741 9.64798V7.12798C64.8741 6.80798 65.0341 6.64798 65.3541 6.64798H67.8741C68.1941 6.64798 68.3541 6.80798 68.3541 7.12798V9.64798C68.3541 9.96798 68.1941 10.128 67.8741 10.128H65.3541ZM86.0486 17.04C84.6406 17.04 83.6166 16.72 82.9766 16.08C82.3526 15.44 82.0406 14.416 82.0406 13.008V11.304C82.0406 9.38398 82.7286 8.31198 84.1046 8.08798V7.91998C83.5606 7.74398 83.1606 7.43998 82.9046 7.00798C82.6486 6.57598 82.5206 6.01598 82.5206 5.32798V3.47998C82.5206 2.32798 82.8166 1.46398 83.4086 0.887982C84.0166 0.295982 84.9126 -1.81198e-05 86.0966 -1.81198e-05H93.2006C94.3846 -1.81198e-05 95.2726 0.295982 95.8646 0.887982C96.4726 1.46398 96.7766 2.32798 96.7766 3.47998V5.32798C96.7766 6.01598 96.6486 6.57598 96.3926 7.00798C96.1366 7.43998 95.7366 7.74398 95.1926 7.91998V8.08798C96.5686 8.31198 97.2566 9.38398 97.2566 11.304V13.008C97.2566 14.416 96.9366 15.44 96.2966 16.08C95.6726 16.72 94.6566 17.04 93.2486 17.04H86.0486ZM91.8086 6.95998C92.3366 6.95998 92.7046 6.85598 92.9126 6.64798C93.1366 6.42398 93.2486 6.04798 93.2486 5.51998V4.12798C93.2486 3.63198 93.1366 3.27998 92.9126 3.07198C92.7046 2.86398 92.3526 2.75998 91.8566 2.75998H87.4406C86.9446 2.75998 86.5846 2.86398 86.3606 3.07198C86.1526 3.27998 86.0486 3.63198 86.0486 4.12798V5.51998C86.0486 6.04798 86.1526 6.42398 86.3606 6.64798C86.5846 6.85598 86.9606 6.95998 87.4886 6.95998H91.8086ZM92.1686 14.16C92.6966 14.16 93.0646 14.056 93.2726 13.848C93.4966 13.624 93.6086 13.248 93.6086 12.72V11.04C93.6086 10.512 93.4966 10.144 93.2726 9.93598C93.0646 9.71198 92.6966 9.59998 92.1686 9.59998H87.1286C86.6006 9.59998 86.2246 9.71198 86.0006 9.93598C85.7926 10.144 85.6886 10.512 85.6886 11.04V12.72C85.6886 13.248 85.7926 13.624 86.0006 13.848C86.2246 14.056 86.6006 14.16 87.1286 14.16H92.1686ZM104.094 17.04C102.686 17.04 101.662 16.72 101.022 16.08C100.398 15.44 100.086 14.416 100.086 13.008V12.24C100.086 11.92 100.246 11.76 100.566 11.76H103.374C103.694 11.76 103.854 11.92 103.854 12.24V12.72C103.854 13.248 103.958 13.624 104.166 13.848C104.39 14.056 104.766 14.16 105.294 14.16H109.206C109.734 14.16 110.102 14.056 110.31 13.848C110.534 13.624 110.646 13.248 110.646 12.72V9.47998H110.454C110.118 9.99198 109.438 10.248 108.414 10.248H103.974C102.566 10.248 101.542 9.93598 100.902 9.31198C100.278 8.67198 99.9664 7.64798 99.9664 6.23998V4.00798C99.9664 2.59998 100.278 1.58398 100.902 0.959982C101.542 0.319982 102.566 -1.81198e-05 103.974 -1.81198e-05H110.334C111.742 -1.81198e-05 112.766 0.319982 113.406 0.959982C114.046 1.58398 114.366 2.59998 114.366 4.00798V13.008C114.366 14.416 114.046 15.44 113.406 16.08C112.782 16.72 111.758 17.04 110.334 17.04H104.094ZM109.182 7.48798C109.71 7.48798 110.086 7.37598 110.31 7.15198C110.534 6.92798 110.646 6.55998 110.646 6.04798V4.31998C110.646 3.79198 110.534 3.42398 110.31 3.21598C110.102 2.99198 109.734 2.87998 109.206 2.87998H105.126C104.598 2.87998 104.222 2.99198 103.998 3.21598C103.79 3.42398 103.686 3.79198 103.686 4.31998V6.04798C103.686 6.57598 103.79 6.95198 103.998 7.17598C104.222 7.38398 104.598 7.48798 105.126 7.48798H109.182ZM121.874 17.04C120.434 17.04 119.362 16.688 118.658 15.984C117.954 15.28 117.602 14.208 117.602 12.768V4.24798C117.602 2.80798 117.954 1.74398 118.658 1.05598C119.362 0.351982 120.434 -1.81198e-05 121.874 -1.81198e-05H128.594C130.034 -1.81198e-05 131.098 0.351982 131.786 1.05598C132.49 1.74398 132.842 2.80798 132.842 4.24798V12.768C132.842 14.208 132.49 15.28 131.786 15.984C131.098 16.688 130.034 17.04 128.594 17.04H121.874ZM127.754 14.04C128.298 14.04 128.69 13.92 128.93 13.68C129.186 13.424 129.314 13.024 129.314 12.48V4.55998C129.314 4.01598 129.186 3.62398 128.93 3.38398C128.69 3.12798 128.298 2.99998 127.754 2.99998H122.714C122.17 2.99998 121.77 3.12798 121.514 3.38398C121.274 3.62398 121.154 4.01598 121.154 4.55998V12.48C121.154 13.024 121.274 13.424 121.514 13.68C121.77 13.92 122.17 14.04 122.714 14.04H127.754ZM123.962 10.128C123.642 10.128 123.482 9.96798 123.482 9.64798V7.12798C123.482 6.80798 123.642 6.64798 123.962 6.64798H126.482C126.802 6.64798 126.962 6.80798 126.962 7.12798V9.64798C126.962 9.96798 126.802 10.128 126.482 10.128H123.962ZM144.656 17.04C143.248 17.04 142.224 16.72 141.584 16.08C140.96 15.44 140.648 14.416 140.648 13.008V11.304C140.648 9.38398 141.336 8.31198 142.712 8.08798V7.91998C142.168 7.74398 141.768 7.43998 141.512 7.00798C141.256 6.57598 141.128 6.01598 141.128 5.32798V3.47998C141.128 2.32798 141.424 1.46398 142.016 0.887982C142.624 0.295982 143.52 -1.81198e-05 144.704 -1.81198e-05H151.808C152.992 -1.81198e-05 153.88 0.295982 154.472 0.887982C155.08 1.46398 155.384 2.32798 155.384 3.47998V5.32798C155.384 6.01598 155.256 6.57598 155 7.00798C154.744 7.43998 154.344 7.74398 153.8 7.91998V8.08798C155.176 8.31198 155.864 9.38398 155.864 11.304V13.008C155.864 14.416 155.544 15.44 154.904 16.08C154.28 16.72 153.264 17.04 151.856 17.04H144.656ZM150.416 6.95998C150.944 6.95998 151.312 6.85598 151.52 6.64798C151.744 6.42398 151.856 6.04798 151.856 5.51998V4.12798C151.856 3.63198 151.744 3.27998 151.52 3.07198C151.312 2.86398 150.96 2.75998 150.464 2.75998H146.048C145.552 2.75998 145.192 2.86398 144.968 3.07198C144.76 3.27998 144.656 3.63198 144.656 4.12798V5.51998C144.656 6.04798 144.76 6.42398 144.968 6.64798C145.192 6.85598 145.568 6.95998 146.096 6.95998H150.416ZM150.776 14.16C151.304 14.16 151.672 14.056 151.88 13.848C152.104 13.624 152.216 13.248 152.216 12.72V11.04C152.216 10.512 152.104 10.144 151.88 9.93598C151.672 9.71198 151.304 9.59998 150.776 9.59998H145.736C145.208 9.59998 144.832 9.71198 144.608 9.93598C144.4 10.144 144.296 10.512 144.296 11.04V12.72C144.296 13.248 144.4 13.624 144.608 13.848C144.832 14.056 145.208 14.16 145.736 14.16H150.776ZM162.702 17.04C161.294 17.04 160.27 16.72 159.63 16.08C159.006 15.44 158.694 14.416 158.694 13.008V12.24C158.694 11.92 158.854 11.76 159.174 11.76H161.982C162.302 11.76 162.462 11.92 162.462 12.24V12.72C162.462 13.248 162.566 13.624 162.774 13.848C162.998 14.056 163.374 14.16 163.902 14.16H167.814C168.342 14.16 168.71 14.056 168.918 13.848C169.142 13.624 169.254 13.248 169.254 12.72V9.47998H169.062C168.726 9.99198 168.046 10.248 167.022 10.248H162.582C161.174 10.248 160.15 9.93598 159.51 9.31198C158.886 8.67198 158.574 7.64798 158.574 6.23998V4.00798C158.574 2.59998 158.886 1.58398 159.51 0.959982C160.15 0.319982 161.174 -1.81198e-05 162.582 -1.81198e-05H168.942C170.35 -1.81198e-05 171.374 0.319982 172.014 0.959982C172.654 1.58398 172.974 2.59998 172.974 4.00798V13.008C172.974 14.416 172.654 15.44 172.014 16.08C171.39 16.72 170.366 17.04 168.942 17.04H162.702ZM167.79 7.48798C168.318 7.48798 168.694 7.37598 168.918 7.15198C169.142 6.92798 169.254 6.55998 169.254 6.04798V4.31998C169.254 3.79198 169.142 3.42398 168.918 3.21598C168.71 2.99198 168.342 2.87998 167.814 2.87998H163.734C163.206 2.87998 162.83 2.99198 162.606 3.21598C162.398 3.42398 162.294 3.79198 162.294 4.31998V6.04798C162.294 6.57598 162.398 6.95198 162.606 7.17598C162.83 7.38398 163.206 7.48798 163.734 7.48798H167.79ZM180.482 17.04C179.042 17.04 177.97 16.688 177.266 15.984C176.562 15.28 176.21 14.208 176.21 12.768V4.24798C176.21 2.80798 176.562 1.74398 177.266 1.05598C177.97 0.351982 179.042 -1.81198e-05 180.482 -1.81198e-05H187.202C188.642 -1.81198e-05 189.706 0.351982 190.394 1.05598C191.098 1.74398 191.45 2.80798 191.45 4.24798V12.768C191.45 14.208 191.098 15.28 190.394 15.984C189.706 16.688 188.642 17.04 187.202 17.04H180.482ZM186.362 14.04C186.906 14.04 187.298 13.92 187.538 13.68C187.794 13.424 187.922 13.024 187.922 12.48V4.55998C187.922 4.01598 187.794 3.62398 187.538 3.38398C187.298 3.12798 186.906 2.99998 186.362 2.99998H181.322C180.778 2.99998 180.378 3.12798 180.122 3.38398C179.882 3.62398 179.762 4.01598 179.762 4.55998V12.48C179.762 13.024 179.882 13.424 180.122 13.68C180.378 13.92 180.778 14.04 181.322 14.04H186.362ZM182.57 10.128C182.25 10.128 182.09 9.96798 182.09 9.64798V7.12798C182.09 6.80798 182.25 6.64798 182.57 6.64798H185.09C185.41 6.64798 185.57 6.80798 185.57 7.12798V9.64798C185.57 9.96798 185.41 10.128 185.09 10.128H182.57ZM198.96 17.04C197.52 17.04 196.448 16.688 195.744 15.984C195.04 15.28 194.688 14.208 194.688 12.768V4.24798C194.688 2.80798 195.04 1.74398 195.744 1.05598C196.448 0.351982 197.52 -1.81198e-05 198.96 -1.81198e-05H205.68C207.12 -1.81198e-05 208.184 0.351982 208.872 1.05598C209.576 1.74398 209.928 2.80798 209.928 4.24798V12.768C209.928 14.208 209.576 15.28 208.872 15.984C208.184 16.688 207.12 17.04 205.68 17.04H198.96ZM204.84 14.04C205.384 14.04 205.776 13.92 206.016 13.68C206.272 13.424 206.4 13.024 206.4 12.48V4.55998C206.4 4.01598 206.272 3.62398 206.016 3.38398C205.776 3.12798 205.384 2.99998 204.84 2.99998H199.8C199.256 2.99998 198.856 3.12798 198.6 3.38398C198.36 3.62398 198.24 4.01598 198.24 4.55998V12.48C198.24 13.024 198.36 13.424 198.6 13.68C198.856 13.92 199.256 14.04 199.8 14.04H204.84ZM201.048 10.128C200.728 10.128 200.568 9.96798 200.568 9.64798V7.12798C200.568 6.80798 200.728 6.64798 201.048 6.64798H203.568C203.888 6.64798 204.048 6.80798 204.048 7.12798V9.64798C204.048 9.96798 203.888 10.128 203.568 10.128H201.048Z" fill="#1B1C21"/>
</svg>
